<?xml version="1.0" standalone="no"?>
<!DOCTYPE svg PUBLIC "-//W3C//DTD SVG 20010904//EN"
 "http://www.w3.org/TR/2001/REC-SVG-20010904/DTD/svg10.dtd">
<svg version="1.0" xmlns="http://www.w3.org/2000/svg"
 width="824.000000pt" height="362.000000pt" viewBox="0 0 824.000000 362.000000"
 preserveAspectRatio="xMidYMid meet">
<metadata>
Created by potrace 1.15, written by Peter Selinger 2001-2017
</metadata>
<g transform="translate(0.000000,362.000000) scale(0.100000,-0.100000)"
fill="#000000" stroke="none">
<path d="M7615 3599 c-16 -6 -39 -12 -50 -14 -11 -3 -76 -17 -145 -31 -69 -15
-192 -42 -275 -62 -82 -19 -193 -42 -245 -52 -52 -10 -113 -23 -135 -29 -22
-6 -92 -21 -155 -35 -407 -87 -842 -184 -884 -197 -16 -5 -40 -9 -53 -9 -21 0
-263 -55 -357 -81 -21 -6 -55 -12 -75 -14 -20 -2 -74 -13 -121 -25 -103 -25
-264 -61 -300 -65 -23 -3 -145 -31 -308 -72 -35 -8 -76 -16 -90 -17 -15 -1
-108 -21 -207 -43 -508 -116 -584 -133 -599 -133 -39 0 -306 -72 -351 -95 -63
-32 -88 -51 -82 -62 2 -4 1 -17 -3 -28 -7 -19 -8 -18 -18 7 -6 14 -16 29 -23
33 -27 18 -86 24 -124 14 -22 -6 -112 -26 -200 -45 -88 -19 -169 -36 -180 -39
-11 -2 -76 -17 -145 -31 -69 -15 -201 -44 -295 -66 -93 -21 -188 -41 -210 -44
-22 -3 -112 -23 -200 -44 -88 -21 -180 -42 -205 -45 -25 -4 -115 -24 -200 -45
-85 -21 -177 -41 -205 -44 -27 -4 -86 -17 -130 -28 -44 -11 -87 -21 -95 -23
-73 -15 -230 -48 -250 -51 -14 -3 -52 -12 -85 -21 -33 -8 -67 -16 -75 -18 -8
-2 -82 -17 -165 -34 -82 -17 -192 -42 -244 -54 l-95 -23 -15 -41 c-14 -39 -13
-50 14 -178 22 -106 34 -144 55 -170 25 -32 26 -38 17 -74 -12 -43 -12 -42
213 -1071 73 -330 80 -356 106 -378 36 -31 39 -31 419 52 516 113 486 106 517
137 27 26 29 27 58 12 17 -8 42 -12 58 -9 31 7 793 173 1972 431 443 97 895
196 1005 220 1078 236 1310 288 1331 297 13 6 30 21 39 34 14 21 17 22 42 9
16 -8 38 -15 49 -15 33 0 2256 488 2280 501 24 12 44 49 44 79 0 24 -86 421
-101 468 -6 19 -22 38 -40 48 -28 14 -29 16 -14 37 8 12 15 41 15 66 0 24 -38
218 -84 430 -47 212 -101 464 -122 560 -49 225 -53 231 -167 230 -45 0 -95 -5
-112 -10z m96 -360 c16 -74 68 -309 114 -524 80 -365 87 -392 114 -416 27 -25
28 -28 17 -78 -9 -45 -7 -71 17 -184 15 -73 30 -141 33 -153 5 -19 -1 -22 -83
-38 -48 -10 -155 -33 -238 -52 -82 -19 -170 -39 -195 -44 -110 -22 -492 -106
-670 -146 -107 -25 -209 -47 -226 -49 -17 -2 -100 -20 -185 -40 -85 -20 -176
-40 -204 -45 -102 -18 -312 -67 -342 -80 -13 -5 -23 -15 -23 -22 -1 -32 -15
-39 -53 -23 -48 20 -88 19 -172 -4 -39 -11 -119 -29 -180 -40 -96 -19 -335
-71 -535 -117 -36 -9 -76 -18 -90 -20 -14 -3 -73 -16 -131 -29 -59 -14 -122
-27 -140 -29 -19 -3 -90 -19 -159 -36 -69 -17 -162 -37 -206 -45 -45 -8 -147
-30 -225 -49 -79 -19 -164 -38 -189 -42 -25 -3 -81 -15 -125 -26 -44 -11 -91
-22 -105 -24 -14 -3 -43 -10 -65 -16 -22 -6 -71 -16 -110 -23 -94 -18 -104
-20 -279 -61 -83 -20 -158 -36 -166 -36 -8 0 -78 -15 -155 -33 -178 -42 -232
-53 -275 -60 -19 -3 -102 -21 -185 -40 -82 -19 -204 -46 -270 -61 -66 -14
-169 -37 -230 -50 -60 -14 -126 -27 -145 -30 -19 -3 -71 -14 -115 -25 -44 -12
-88 -23 -98 -25 -46 -9 -58 -17 -64 -45 -6 -34 -7 -34 -36 -15 -38 25 -83 25
-184 0 -53 -13 -134 -30 -178 -39 -44 -9 -151 -32 -238 -52 -87 -20 -160 -33
-164 -29 -6 6 -26 94 -194 861 -73 337 -86 383 -109 406 -24 24 -25 29 -13 58
11 26 11 44 -3 107 -8 42 -13 78 -11 80 4 5 310 73 1027 229 1247 272 1662
364 1725 380 70 19 151 74 166 113 l11 27 13 -31 c14 -35 31 -44 82 -44 19 0
342 67 717 149 374 82 1127 247 1671 366 545 119 1220 268 1500 329 281 62
514 109 518 105 5 -4 22 -67 38 -140z"/>
<path d="M7290 3188 c-47 -11 -88 -25 -91 -31 -4 -5 -20 -7 -35 -4 -30 5 -298
-53 -344 -75 -14 -7 -45 -13 -70 -13 -25 -1 -82 -10 -128 -20 -72 -17 -82 -22
-80 -39 3 -19 -3 -21 -102 -22 -91 -1 -142 -5 -160 -14 -3 -1 -9 -3 -15 -4
-82 -18 -108 -39 -119 -94 -9 -48 14 -92 74 -142 29 -24 59 -58 66 -75 23 -55
114 -501 114 -557 0 -59 -8 -73 -58 -108 -18 -12 -38 -34 -43 -48 l-10 -25
-25 24 c-46 43 -62 92 -129 395 -68 304 -70 327 -45 415 17 60 2 101 -46 124
-35 17 -106 22 -141 11 -22 -7 -51 -14 -93 -22 -14 -3 -81 -17 -150 -33 -122
-27 -125 -28 -142 -62 -37 -70 -21 -123 51 -169 21 -14 31 -51 97 -350 41
-183 83 -353 95 -376 25 -52 96 -120 152 -144 97 -42 338 -45 394 -4 15 12 49
23 74 26 90 10 191 109 223 217 28 96 21 161 -60 525 -24 110 -44 216 -44 234
0 33 27 92 41 92 4 0 15 -36 25 -81 27 -125 80 -188 148 -175 48 9 76 52 97
146 9 41 19 68 22 60 3 -8 36 -156 73 -328 54 -251 66 -317 56 -330 -22 -32
-42 -84 -42 -112 0 -38 34 -77 77 -89 40 -11 71 -6 323 51 190 43 223 63 223
140 0 42 -13 59 -83 108 -14 10 -26 36 -35 80 -103 471 -127 578 -132 598 -10
43 12 21 46 -43 44 -86 79 -115 137 -115 79 0 114 63 94 171 -27 144 -62 268
-81 284 -28 26 -102 27 -199 3z"/>
<path d="M5070 2713 c-69 -9 -90 -15 -84 -24 4 -6 -9 -9 -33 -7 -96 7 -222
-73 -296 -188 -35 -55 -74 -174 -87 -271 -19 -142 23 -346 97 -472 106 -179
292 -283 483 -268 114 9 198 33 267 78 227 148 301 432 193 749 -57 169 -204
329 -346 374 -48 16 -165 34 -194 29z m-16 -250 c26 -39 40 -96 121 -470 44
-204 53 -275 37 -301 -11 -17 -35 10 -61 68 -18 41 -114 453 -141 607 -9 54
-7 101 7 126 7 12 12 8 37 -30z"/>
<path d="M3615 2383 c-11 -3 -25 -9 -30 -13 -6 -5 -28 -9 -50 -8 -53 0 -375
-79 -396 -98 -9 -8 -17 -27 -18 -42 -5 -73 -1 -86 39 -127 48 -49 50 -56 135
-447 53 -250 72 -361 37 -227 -25 93 -42 115 -104 134 -51 15 -53 15 -75 -7
-14 -14 -29 -50 -39 -93 -26 -114 -42 -151 -80 -180 -24 -19 -35 -22 -38 -13
-3 7 -37 162 -75 343 -39 182 -73 340 -76 351 -3 14 6 35 25 59 40 50 40 94 1
137 -29 32 -31 33 -113 32 -62 0 -126 -11 -258 -43 -96 -24 -182 -47 -192 -52
-10 -5 -19 -27 -23 -58 -8 -56 5 -89 53 -135 17 -15 35 -40 41 -55 11 -28 71
-293 121 -535 l30 -149 -20 -60 c-17 -49 -19 -65 -10 -93 14 -42 56 -66 114
-66 44 0 346 66 377 82 10 6 32 10 49 10 48 0 292 59 310 75 9 8 37 13 70 14
61 0 353 62 397 84 16 8 53 17 84 20 74 7 140 39 209 103 89 83 135 185 160
356 21 140 -21 321 -102 447 -88 136 -185 217 -293 246 -56 14 -214 19 -260 8z
m88 -280 c26 -60 137 -576 137 -635 0 -59 -17 -24 -38 80 -13 59 -47 216 -76
350 -29 133 -50 242 -46 242 4 0 14 -17 23 -37z"/>
<path d="M1783 2003 c-21 -3 -33 -10 -33 -20 0 -12 -8 -13 -37 -9 -31 5 -52 0
-108 -27 -196 -95 -303 -351 -262 -626 l8 -54 -40 35 c-21 20 -49 42 -61 48
l-22 12 21 14 c58 41 62 103 17 289 -30 122 -54 151 -133 161 -47 5 -57 4 -73
-13 -17 -19 -29 -20 -134 -17 -73 3 -116 1 -116 -6 0 -5 -11 -9 -24 -8 -26 2
-146 -42 -146 -54 0 -5 -6 -8 -13 -8 -8 0 -39 -26 -69 -58 -42 -44 -60 -72
-77 -123 -64 -194 -36 -337 93 -463 47 -47 54 -58 35 -53 -21 5 -27 1 -42 -33
-9 -22 -17 -61 -17 -88 0 -67 56 -312 78 -342 40 -54 98 -61 156 -19 25 19 38
21 104 16 50 -4 89 -1 116 8 23 7 61 16 86 20 134 22 275 141 322 273 9 26 20
75 23 109 l7 62 42 -55 c54 -74 153 -147 234 -174 91 -29 205 -37 262 -16 25
9 58 16 73 16 72 0 205 91 273 186 113 159 132 390 49 627 -44 127 -155 266
-265 330 -74 43 -234 72 -327 60z m36 -248 c31 -45 49 -114 116 -428 54 -254
61 -300 49 -331 -9 -25 -22 -19 -48 22 -41 62 -174 670 -162 736 4 20 10 36
14 36 4 0 18 -16 31 -35z m-901 -179 c34 -13 74 -33 90 -45 32 -23 88 -98 79
-107 -7 -8 -174 30 -222 50 -45 19 -52 38 -30 87 10 21 19 39 20 39 0 0 29
-11 63 -24z m127 -690 c31 -20 31 -30 3 -66 -13 -15 -28 -36 -34 -46 -10 -17
-13 -17 -69 6 -33 13 -77 40 -99 60 -39 34 -96 106 -96 120 0 11 267 -56 295
-74z"/>
</g>
</svg>
