<?xml version="1.0" encoding="UTF-8"?>
<svg xmlns="http://www.w3.org/2000/svg" xmlns:xlink="http://www.w3.org/1999/xlink" width="64pt" height="64pt" viewBox="0 0 64 64" version="1.1">
<g id="surface1">
<path style=" stroke:none;fill-rule:nonzero;fill:rgb(0%,0%,0%);fill-opacity:1;" d="M 20.011719 30.386719 C 18.171875 30.386719 16.671875 31.835938 16.671875 33.617188 C 16.671875 35.398438 18.171875 36.847656 20.011719 36.847656 C 21.847656 36.847656 23.347656 35.398438 23.347656 33.617188 C 23.347656 31.835938 21.847656 30.386719 20.011719 30.386719 Z M 20.011719 34.765625 C 19.320312 34.765625 18.757812 34.25 18.757812 33.617188 C 18.757812 32.988281 19.320312 32.472656 20.011719 32.472656 C 20.699219 32.472656 21.261719 32.988281 21.261719 33.617188 C 21.261719 34.25 20.699219 34.765625 20.011719 34.765625 Z M 20.011719 34.765625 "/>
<path style=" stroke:none;fill-rule:nonzero;fill:rgb(0%,0%,0%);fill-opacity:1;" d="M 40.597656 32.628906 L 26.699219 32.628906 C 26.125 32.628906 25.65625 33.097656 25.65625 33.671875 C 25.65625 34.246094 26.125 34.714844 26.699219 34.714844 L 40.597656 34.714844 C 41.171875 34.714844 41.636719 34.246094 41.636719 33.671875 C 41.636719 33.097656 41.171875 32.628906 40.597656 32.628906 Z M 40.597656 32.628906 "/>
<path style=" stroke:none;fill-rule:nonzero;fill:rgb(0%,0%,0%);fill-opacity:1;" d="M 20.011719 21.328125 C 18.171875 21.328125 16.671875 22.777344 16.671875 24.558594 C 16.671875 26.339844 18.171875 27.789062 20.011719 27.789062 C 21.847656 27.789062 23.347656 26.339844 23.347656 24.558594 C 23.347656 22.777344 21.847656 21.328125 20.011719 21.328125 Z M 20.011719 25.703125 C 19.320312 25.703125 18.757812 25.191406 18.757812 24.558594 C 18.757812 23.925781 19.320312 23.414062 20.011719 23.414062 C 20.699219 23.414062 21.261719 23.925781 21.261719 24.558594 C 21.261719 25.191406 20.699219 25.703125 20.011719 25.703125 Z M 20.011719 25.703125 "/>
<path style=" stroke:none;fill-rule:nonzero;fill:rgb(0%,0%,0%);fill-opacity:1;" d="M 20.011719 39.449219 C 18.171875 39.449219 16.671875 40.898438 16.671875 42.679688 C 16.671875 44.460938 18.171875 45.910156 20.011719 45.910156 C 21.847656 45.910156 23.347656 44.460938 23.347656 42.679688 C 23.347656 40.898438 21.847656 39.449219 20.011719 39.449219 Z M 20.011719 43.824219 C 19.320312 43.824219 18.757812 43.3125 18.757812 42.679688 C 18.757812 42.046875 19.320312 41.53125 20.011719 41.53125 C 20.699219 41.53125 21.261719 42.046875 21.261719 42.679688 C 21.261719 43.3125 20.699219 43.824219 20.011719 43.824219 Z M 20.011719 43.824219 "/>
<path style=" stroke:none;fill-rule:nonzero;fill:rgb(0%,0%,0%);fill-opacity:1;" d="M 40.597656 41.621094 L 26.699219 41.621094 C 26.125 41.621094 25.65625 42.085938 25.65625 42.664062 C 25.65625 43.238281 26.125 43.703125 26.699219 43.703125 L 40.597656 43.703125 C 41.171875 43.703125 41.636719 43.238281 41.636719 42.664062 C 41.636719 42.085938 41.171875 41.621094 40.597656 41.621094 Z M 40.597656 41.621094 "/>
<path style=" stroke:none;fill-rule:nonzero;fill:rgb(0%,0%,0%);fill-opacity:1;" d="M 61.46875 9.4375 C 61.410156 8.914062 60.960938 8.519531 60.433594 8.527344 L 57.5625 8.527344 L 57.5625 6.679688 C 57.5625 2.996094 54.386719 0 50.527344 0 C 46.667969 0 43.492188 2.996094 43.492188 6.679688 L 43.492188 8.527344 L 40.285156 8.527344 C 39.757812 8.519531 39.308594 8.914062 39.25 9.4375 L 38.886719 12.566406 L 10.28125 12.566406 C 9.710938 12.5625 9.246094 13.019531 9.238281 13.589844 L 8.992188 50.089844 L 1.617188 50.089844 C 1.042969 50.089844 0.628906 50.578125 0.628906 51.152344 L 0.628906 55.785156 C 0.636719 60.15625 4.078125 63.75 8.445312 63.949219 L 8.445312 63.898438 L 40.625 63.898438 L 40.625 63.941406 C 40.757812 63.949219 40.90625 63.898438 41.066406 63.898438 L 41.101562 63.898438 C 43.257812 63.910156 45.324219 63.0625 46.851562 61.539062 C 48.375 60.019531 49.230469 57.953125 49.226562 55.796875 L 49.226562 31.980469 L 58.40625 31.980469 C 59.875 31.988281 61.277344 31.371094 62.265625 30.285156 C 63.171875 29.289062 63.605469 27.945312 63.445312 26.609375 Z M 45.578125 6.679688 C 45.578125 4.148438 47.816406 2.085938 50.527344 2.085938 C 53.238281 2.085938 55.480469 4.148438 55.480469 6.679688 L 55.480469 8.527344 L 45.578125 8.527344 Z M 8.761719 61.816406 L 8.757812 61.816406 C 7.152344 61.824219 5.609375 61.195312 4.472656 60.0625 C 3.339844 58.929688 2.703125 57.386719 2.710938 55.78125 L 2.710938 52.171875 L 32.9375 52.171875 L 32.9375 55.769531 C 32.925781 57.929688 33.78125 60.003906 35.3125 61.527344 C 35.421875 61.636719 35.519531 61.816406 35.632812 61.816406 Z M 47.140625 55.769531 L 47.140625 55.78125 C 47.148438 57.386719 46.515625 58.925781 45.382812 60.058594 C 44.246094 61.195312 42.707031 61.824219 41.101562 61.816406 L 41.082031 61.816406 C 39.472656 61.824219 37.929688 61.191406 36.789062 60.054688 C 35.652344 58.921875 35.015625 57.375 35.023438 55.769531 L 35.023438 51.152344 C 35.011719 50.566406 34.535156 50.097656 33.949219 50.089844 L 11.078125 50.089844 L 11.316406 14.648438 L 38.648438 14.648438 L 37.625 23.511719 L 26.699219 23.511719 C 26.125 23.511719 25.65625 23.976562 25.65625 24.550781 C 25.65625 25.128906 26.125 25.59375 26.699219 25.59375 L 37.386719 25.59375 L 37.269531 26.601562 C 37.113281 27.941406 37.546875 29.285156 38.457031 30.28125 C 39.441406 31.371094 40.84375 31.988281 42.3125 31.980469 L 47.140625 31.980469 Z M 60.707031 28.894531 C 60.117188 29.542969 59.28125 29.90625 58.40625 29.894531 L 42.316406 29.894531 C 41.441406 29.90625 40.601562 29.542969 40.011719 28.898438 C 39.503906 28.34375 39.257812 27.597656 39.34375 26.851562 L 41.210938 10.613281 L 43.492188 10.613281 L 43.492188 12.109375 C 43.492188 12.683594 43.960938 13.152344 44.535156 13.152344 C 45.109375 13.152344 45.578125 12.683594 45.578125 12.109375 L 45.578125 10.613281 L 55.480469 10.613281 L 55.480469 12.109375 C 55.480469 12.683594 55.945312 13.152344 56.523438 13.152344 C 57.097656 13.152344 57.5625 12.683594 57.5625 12.109375 L 57.5625 10.613281 L 59.503906 10.613281 L 61.375 26.851562 C 61.460938 27.597656 61.21875 28.34375 60.707031 28.894531 Z M 60.707031 28.894531 "/>
</g>
</svg>
