<?xml version="1.0" encoding="UTF-8"?>
<svg xmlns="http://www.w3.org/2000/svg" xmlns:xlink="http://www.w3.org/1999/xlink" width="64pt" height="64pt" viewBox="0 0 64 64" version="1.1">
<g id="surface1">
<path style=" stroke:none;fill-rule:nonzero;fill:rgb(0%,0%,0%);fill-opacity:1;" d="M 34.5625 20.949219 L 38.785156 20.949219 C 40.464844 20.949219 41.835938 22.308594 41.835938 24 C 41.835938 25.6875 40.476562 27.046875 38.785156 27.046875 C 38.761719 27.046875 38.746094 27.046875 38.722656 27.046875 C 38.695312 27.046875 38.679688 27.046875 38.65625 27.046875 L 31.210938 27.046875 C 30.339844 27.046875 29.628906 27.761719 29.628906 28.632812 C 29.628906 29.503906 30.339844 30.214844 31.210938 30.214844 L 35.105469 30.214844 L 35.105469 33.105469 C 35.105469 33.976562 35.816406 34.6875 36.6875 34.6875 C 37.558594 34.6875 38.273438 33.976562 38.273438 33.105469 L 38.273438 30.214844 L 38.65625 30.214844 C 38.679688 30.214844 38.695312 30.214844 38.722656 30.214844 C 38.746094 30.214844 38.761719 30.214844 38.785156 30.214844 C 42.21875 30.214844 45.003906 27.429688 45.003906 24 C 45.003906 20.566406 42.21875 17.785156 38.785156 17.785156 L 34.5625 17.785156 C 32.886719 17.785156 31.515625 16.425781 31.515625 14.734375 C 31.515625 13.046875 32.875 11.6875 34.5625 11.6875 L 42.007812 11.6875 C 42.878906 11.6875 43.589844 10.972656 43.589844 10.101562 C 43.589844 9.230469 42.878906 8.519531 42.007812 8.519531 L 38.257812 8.519531 L 38.257812 5.695312 C 38.257812 4.824219 37.546875 4.113281 36.675781 4.113281 C 35.804688 4.113281 35.089844 4.824219 35.089844 5.695312 L 35.089844 8.53125 L 34.5625 8.53125 C 31.132812 8.53125 28.347656 11.316406 28.347656 14.75 C 28.347656 18.167969 31.132812 20.949219 34.5625 20.949219 Z M 34.5625 20.949219 "/>
<path style=" stroke:none;fill-rule:nonzero;fill:rgb(0%,0%,0%);fill-opacity:1;" d="M 19.136719 42.011719 L 54.625 42.011719 C 58.542969 42.011719 61.722656 38.820312 61.722656 34.914062 L 61.722656 19.960938 C 61.722656 19.089844 61.011719 18.378906 60.140625 18.378906 C 59.269531 18.378906 58.554688 19.089844 58.554688 19.960938 L 58.554688 34.902344 C 58.554688 37.078125 56.789062 38.832031 54.625 38.832031 L 19.136719 38.832031 C 16.957031 38.832031 15.203125 37.066406 15.203125 34.902344 L 15.203125 5.707031 C 15.203125 5.65625 15.203125 5.589844 15.191406 5.535156 C 15.191406 5.523438 15.191406 5.511719 15.191406 5.496094 C 15.191406 5.457031 15.175781 5.417969 15.175781 5.390625 C 15.175781 5.367188 15.164062 5.324219 15.152344 5.300781 C 15.152344 5.285156 15.136719 5.257812 15.136719 5.246094 C 15.125 5.207031 15.113281 5.179688 15.097656 5.140625 C 15.097656 5.128906 15.085938 5.113281 15.085938 5.101562 C 15.070312 5.074219 15.058594 5.035156 15.046875 5.007812 C 15.03125 4.996094 15.03125 4.984375 15.019531 4.957031 C 15.003906 4.929688 14.992188 4.902344 14.980469 4.878906 C 14.964844 4.863281 14.953125 4.835938 14.941406 4.824219 C 14.925781 4.8125 14.914062 4.785156 14.898438 4.769531 C 14.886719 4.746094 14.859375 4.71875 14.847656 4.707031 C 14.835938 4.691406 14.820312 4.679688 14.808594 4.664062 C 14.78125 4.640625 14.769531 4.613281 14.742188 4.585938 C 14.730469 4.574219 14.714844 4.558594 14.703125 4.558594 C 14.675781 4.535156 14.648438 4.507812 14.625 4.496094 C 14.609375 4.480469 14.597656 4.46875 14.582031 4.46875 C 14.558594 4.441406 14.53125 4.429688 14.503906 4.414062 C 14.476562 4.390625 14.4375 4.375 14.410156 4.363281 C 14.398438 4.347656 14.386719 4.347656 14.371094 4.335938 C 14.320312 4.308594 14.265625 4.28125 14.226562 4.257812 L 4.472656 0.125 C 3.667969 -0.21875 2.746094 0.164062 2.402344 0.96875 C 2.058594 1.761719 2.441406 2.699219 3.246094 3.042969 L 12.023438 6.75 L 12.023438 46.027344 C 12.023438 49.746094 14.886719 52.796875 18.53125 53.097656 C 17.789062 54.207031 17.355469 55.539062 17.355469 56.980469 C 17.355469 60.847656 20.507812 64 24.375 64 C 28.242188 64 31.398438 60.847656 31.398438 56.980469 C 31.398438 55.554688 30.972656 54.234375 30.25 53.125 L 47.046875 53.125 C 46.324219 54.234375 45.898438 55.554688 45.898438 56.980469 C 45.898438 60.847656 49.054688 64 52.921875 64 C 56.789062 64 59.941406 60.847656 59.941406 56.980469 C 59.941406 53.113281 56.789062 49.957031 52.921875 49.957031 L 19.136719 49.957031 C 16.957031 49.957031 15.203125 48.191406 15.203125 46.027344 L 15.203125 40.8125 C 16.324219 41.566406 17.683594 42.011719 19.136719 42.011719 Z M 28.230469 56.980469 C 28.230469 59.105469 26.5 60.832031 24.375 60.832031 C 22.25 60.832031 20.523438 59.105469 20.523438 56.980469 C 20.523438 54.855469 22.25 53.125 24.375 53.125 C 26.5 53.125 28.230469 54.855469 28.230469 56.980469 Z M 56.761719 56.980469 C 56.761719 59.105469 55.03125 60.832031 52.90625 60.832031 C 50.78125 60.832031 49.054688 59.105469 49.054688 56.980469 C 49.054688 54.855469 50.78125 53.125 52.90625 53.125 C 55.03125 53.125 56.761719 54.855469 56.761719 56.980469 Z M 56.761719 56.980469 "/>
</g>
</svg>
