<?xml version="1.0" encoding="iso-8859-1"?>
<!-- Generator: Adobe Illustrator 19.0.0, SVG Export Plug-In . SVG Version: 6.00 Build 0)  -->
<svg version="1.1" id="Capa_1" xmlns="http://www.w3.org/2000/svg" xmlns:xlink="http://www.w3.org/1999/xlink" x="0px" y="0px"
	 viewBox="0 0 480 480" style="enable-background:new 0 0 480 480;" xml:space="preserve">
<g>
	<g>
		<path d="M440,0H248c-22.08,0.026-39.974,17.92-40,40v48H8c-4.418,0-8,3.582-8,8v136c0,4.418,3.582,8,8,8h200v200
			c0.026,22.08,17.92,39.974,40,40h192c22.08-0.026,39.974-17.92,40-40V40C479.974,17.92,462.08,0.026,440,0z M208,224H16V104h192
			V224z M464,384H256v16h208v40c0,13.255-10.745,24-24,24H248c-13.255,0-24-10.745-24-24V80h208V64H224V40c0-13.255,10.745-24,24-24
			h192c13.255,0,24,10.745,24,24V384z"/>
	</g>
</g>
<g>
	<g>
		<rect x="336" y="424" width="16" height="16"/>
	</g>
</g>
<g>
	<g>
		<rect x="280" y="32" width="16" height="16"/>
	</g>
</g>
<g>
	<g>
		<rect x="312" y="32" width="16" height="16"/>
	</g>
</g>
<g>
	<g>
		<rect x="32" y="128" width="16" height="72"/>
	</g>
</g>
<g>
	<g>
		<rect x="56" y="128" width="16" height="56"/>
	</g>
</g>
<g>
	<g>
		<rect x="80" y="128" width="16" height="56"/>
	</g>
</g>
<g>
	<g>
		<rect x="104" y="128" width="16" height="56"/>
	</g>
</g>
<g>
	<g>
		<rect x="128" y="128" width="16" height="56"/>
	</g>
</g>
<g>
	<g>
		<rect x="152" y="128" width="16" height="56"/>
	</g>
</g>
<g>
	<g>
		<rect x="176" y="128" width="16" height="56"/>
	</g>
</g>
<g>
	<g>
		<rect x="256" y="144" width="16" height="80"/>
	</g>
</g>
<g>
	<g>
		<rect x="280" y="144" width="16" height="64"/>
	</g>
</g>
<g>
	<g>
		<rect x="304" y="144" width="16" height="64"/>
	</g>
</g>
<g>
	<g>
		<rect x="328" y="144" width="16" height="64"/>
	</g>
</g>
<g>
	<g>
		<rect x="352" y="144" width="16" height="64"/>
	</g>
</g>
<g>
	<g>
		<rect x="376" y="144" width="16" height="64"/>
	</g>
</g>
<g>
	<g>
		<rect x="400" y="144" width="16" height="64"/>
	</g>
</g>
<g>
	<g>
		<rect x="424" y="144" width="16" height="80"/>
	</g>
</g>
<g>
</g>
<g>
</g>
<g>
</g>
<g>
</g>
<g>
</g>
<g>
</g>
<g>
</g>
<g>
</g>
<g>
</g>
<g>
</g>
<g>
</g>
<g>
</g>
<g>
</g>
<g>
</g>
<g>
</g>
</svg>
