<svg height="512pt" viewBox="-103 0 512 512" width="512pt" xmlns="http://www.w3.org/2000/svg"><path d="m281.441406 511.996094h-257.53125c-13.207031 0-23.910156-10.707032-23.910156-23.910156v-464.171876c0-13.203124 10.703125-23.91015575 23.910156-23.91015575h257.53125c13.207032 0 23.914063 10.70703175 23.914063 23.91015575v464.171876c0 13.203124-10.707031 23.910156-23.914063 23.910156zm0 0" fill="#838383"/><path d="m305.351562 23.914062v464.171876c0 13.199218-10.703124 23.914062-23.910156 23.914062h-21.523437c13.199219 0 23.914062-10.714844 23.914062-23.914062v-464.171876c0-13.199218-10.714843-23.914062-23.914062-23.914062h21.523437c13.207032 0 23.910156 10.714844 23.910156 23.914062zm0 0" fill="#676868"/><path d="m227.710938 36.03125-12.917969 18.945312c-.957031 1.40625-2.554688 2.25-4.257813 2.25h-115.714844c-1.703124 0-3.300781-.84375-4.257812-2.25l-12.917969-18.945312c-.957031-1.40625-2.554687-2.25-4.257812-2.25h-30.046875c-4.964844 0-8.988282 3.980469-8.988282 8.886719v426.664062c0 4.90625 4.023438 8.886719 8.988282 8.886719h218.675781c4.964844 0 8.992187-3.980469 8.992187-8.886719v-426.664062c0-4.90625-4.027343-8.886719-8.992187-8.886719h-30.046875c-1.703125 0-3.300781.84375-4.257812 2.25zm0 0" fill="#fff5f5"/><path d="m271.003906 42.671875v426.65625c0 4.910156-4.019531 8.890625-8.992187 8.890625h-27.347657c4.960938 0 8.992188-3.980469 8.992188-8.890625v-426.65625c0-4.910156-4.03125-8.890625-8.992188-8.890625h27.347657c4.972656 0 8.992187 3.980469 8.992187 8.890625zm0 0" fill="#efe2dd"/><g fill="#676868"><path d="m125.324219 29.65625c0 5.167969-4.1875 9.355469-9.351563 9.355469-5.167968 0-9.355468-4.1875-9.355468-9.355469 0-5.164062 4.1875-9.351562 9.355468-9.351562 5.164063 0 9.351563 4.1875 9.351563 9.351562zm0 0"/><path d="m198.738281 37.390625c4.269531 0 7.734375-3.464844 7.734375-7.734375s-3.464844-7.734375-7.734375-7.734375h-58.261719c-4.273437 0-7.734374 3.464844-7.734374 7.734375s3.460937 7.734375 7.734374 7.734375zm0 0"/><path d="m96.347656 267.058594h18.8125v18.8125h-18.8125zm0 0"/><path d="m188.8125 267.058594h18.816406v18.8125h-18.816406zm0 0"/><path d="m88.632812 328.644531h-5.949218c-4.273438 0-7.734375-3.464843-7.734375-7.734375 0-4.273437 3.460937-7.734375 7.734375-7.734375h5.949218c4.269532 0 7.734376 3.460938 7.734376 7.734375 0 4.269532-3.464844 7.734375-7.734376 7.734375zm0 0"/><path d="m242.386719 392.710938c-4.273438 0-7.734375 3.464843-7.734375 7.734374v10.703126h-10.707032c-4.269531 0-7.734374 3.464843-7.734374 7.734374 0 4.273438 3.464843 7.734376 7.734374 7.734376h18.441407c4.269531 0 7.730469-3.460938 7.730469-7.734376v-18.4375c0-4.269531-3.460938-7.734374-7.730469-7.734374zm0 0"/><path d="m81.40625 411.148438h-10.703125v-10.703126c0-4.269531-3.464844-7.734374-7.734375-7.734374-4.273438 0-7.734375 3.464843-7.734375 7.734374v18.4375c0 4.273438 3.460937 7.734376 7.734375 7.734376h18.4375c4.273438 0 7.734375-3.460938 7.734375-7.734376 0-4.269531-3.460937-7.734374-7.734375-7.734374zm0 0"/><path d="m242.386719 217h-18.441407c-4.269531 0-7.734374 3.464844-7.734374 7.734375 0 4.273437 3.464843 7.734375 7.734374 7.734375h10.707032v10.707031c0 4.269531 3.460937 7.734375 7.734375 7.734375 4.269531 0 7.730469-3.464844 7.730469-7.734375v-18.441406c0-4.269531-3.460938-7.734375-7.730469-7.734375zm0 0"/><path d="m62.96875 250.90625c4.269531 0 7.734375-3.460938 7.734375-7.730469v-10.707031h10.707031c4.269532 0 7.734375-3.464844 7.734375-7.734375s-3.464843-7.734375-7.734375-7.734375h-18.441406c-4.269531 0-7.734375 3.464844-7.734375 7.734375v18.441406c0 4.269531 3.460937 7.730469 7.734375 7.730469zm0 0"/><path d="m74.363281 252.808594v47.308594c0 4.273437 3.464844 7.734374 7.734375 7.734374h47.308594c4.273438 0 7.734375-3.460937 7.734375-7.734374v-47.308594c0-4.269532-3.460937-7.734375-7.734375-7.734375h-47.308594c-4.269531 0-7.734375 3.464843-7.734375 7.734375zm15.46875 7.734375h31.84375v31.84375h-31.84375zm0 0"/><path d="m174.566406 307.851562h47.308594c4.273438 0 7.734375-3.460937 7.734375-7.734374v-47.308594c0-4.269532-3.460937-7.734375-7.734375-7.734375h-47.308594c-4.269531 0-7.734375 3.464843-7.734375 7.734375v47.308594c0 4.273437 3.464844 7.734374 7.734375 7.734374zm7.734375-47.308593h31.839844v31.84375h-31.839844zm0 0"/><path d="m152.367188 361.054688h17.625c4.273437 0 7.734374-3.460938 7.734374-7.734376 0-4.269531-3.460937-7.730468-7.734374-7.730468h-9.890626v-92.78125c0-4.269532-3.464843-7.734375-7.734374-7.734375-4.269532 0-7.734376 3.464843-7.734376 7.734375v60.367187h-26.367187c-4.273437 0-7.734375 3.460938-7.734375 7.734375 0 4.269532 3.460938 7.734375 7.734375 7.734375h26.367187v24.675781c0 4.273438 3.464844 7.734376 7.734376 7.734376zm0 0"/><path d="m230.988281 320.910156c0-4.273437-3.460937-7.734375-7.730469-7.734375h-25.035156c-4.273437 0-7.734375 3.460938-7.734375 7.734375v62.164063h-36.15625c-4.273437 0-7.734375 3.464843-7.734375 7.734375 0 4.273437 3.460938 7.734375 7.734375 7.734375h43.886719c4.273438 0 7.734375-3.460938 7.734375-7.734375v-62.164063h17.300781c4.273438 0 7.734375-3.464843 7.734375-7.734375zm0 0"/><path d="m221.875 335.765625c-4.269531 0-7.734375 3.464844-7.734375 7.734375v9.820312c0 4.273438 3.464844 7.734376 7.734375 7.734376 4.273438 0 7.734375-3.460938 7.734375-7.734376v-9.820312c0-4.273438-3.460937-7.734375-7.734375-7.734375zm0 0"/><path d="m221.875 398.542969c4.273438 0 7.734375-3.464844 7.734375-7.734375v-9.746094c0-4.269531-3.460937-7.734375-7.734375-7.734375-4.269531 0-7.734375 3.464844-7.734375 7.734375v9.746094c0 4.269531 3.464844 7.734375 7.734375 7.734375zm0 0"/><path d="m129.40625 335.765625h-47.308594c-4.269531 0-7.734375 3.464844-7.734375 7.734375v47.308594c0 4.273437 3.464844 7.734375 7.734375 7.734375h47.308594c4.273438 0 7.734375-3.460938 7.734375-7.734375v-47.308594c0-4.273438-3.460937-7.734375-7.734375-7.734375zm-7.730469 47.308594h-31.84375v-31.839844h31.84375zm0 0"/><path d="m96.347656 357.746094h18.8125v18.816406h-18.8125zm0 0"/><path d="m175.226562 337.484375c-.492187 0-1.007812-.050781-1.503906-.15625-.496094-.09375-.980468-.246094-1.453125-.441406-.464843-.1875-.910156-.433594-1.332031-.710938-.421875-.277343-.8125-.597656-1.175781-.960937-.359375-.347656-.679688-.75-.957031-1.175782-.277344-.410156-.515626-.863281-.710938-1.328124-.195312-.464844-.339844-.960938-.445312-1.453126-.101563-.496093-.152344-1-.152344-1.507812 0-2.03125.824218-4.03125 2.269531-5.476562.359375-.347657.75-.667969 1.175781-.957032.421875-.277344.863282-.515625 1.328125-.710937.472657-.1875.960938-.339844 1.453125-.433594 2.515625-.503906 5.1875.308594 6.980469 2.105469 1.433594 1.441406 2.261719 3.441406 2.261719 5.476562 0 .503906-.042969 1.007813-.144532 1.503906-.105468.496094-.25.988282-.445312 1.453126-.195312.464843-.433594.917968-.710938 1.328124-.277343.425782-.609374.828126-.960937 1.179688-1.441406 1.4375-3.433594 2.265625-5.476563 2.265625zm0 0"/></g><path d="m120.191406 112.941406h117.691406c4.269532 0 7.734376-3.464844 7.734376-7.734375s-3.464844-7.734375-7.734376-7.734375h-117.691406c-4.273437 0-7.734375 3.464844-7.734375 7.734375s3.460938 7.734375 7.734375 7.734375zm0 0" fill="#00c1fb"/><path d="m67.472656 112.941406h16.367188c4.273437 0 7.734375-3.464844 7.734375-7.734375s-3.460938-7.734375-7.734375-7.734375h-16.367188c-4.273437 0-7.734375 3.464844-7.734375 7.734375s3.460938 7.734375 7.734375 7.734375zm0 0" fill="#00c1fb"/><path d="m237.882812 146.578125h-43.964843c-4.269531 0-7.734375 3.464844-7.734375 7.734375 0 4.273438 3.464844 7.734375 7.734375 7.734375h43.964843c4.269532 0 7.734376-3.460937 7.734376-7.734375 0-4.269531-3.464844-7.734375-7.734376-7.734375zm0 0" fill="#00c1fb"/><path d="m166.214844 154.3125c0-4.269531-3.460938-7.734375-7.734375-7.734375h-91.007813c-4.273437 0-7.734375 3.464844-7.734375 7.734375 0 4.273438 3.460938 7.734375 7.734375 7.734375h91.007813c4.273437 0 7.734375-3.460937 7.734375-7.734375zm0 0" fill="#00c1fb"/><path d="m237.882812 177.160156h-70.773437c-4.273437 0-7.734375 3.460938-7.734375 7.734375 0 4.269531 3.460938 7.734375 7.734375 7.734375h70.773437c4.269532 0 7.734376-3.464844 7.734376-7.734375 0-4.273437-3.464844-7.734375-7.734376-7.734375zm0 0" fill="#00c1fb"/><path d="m132.046875 177.160156h-64.574219c-4.273437 0-7.734375 3.460938-7.734375 7.734375 0 4.269531 3.460938 7.734375 7.734375 7.734375h64.574219c4.273437 0 7.734375-3.464844 7.734375-7.734375 0-4.273437-3.460938-7.734375-7.734375-7.734375zm0 0" fill="#00c1fb"/></svg>